<svg width="1440" height="92" viewBox="0 0 1440 92" fill="none" xmlns="http://www.w3.org/2000/svg">
<rect width="1440" height="92" fill="#1664FF"/>
<mask id="mask0_254_3350" style="mask-type:alpha" maskUnits="userSpaceOnUse" x="1" y="0" width="1439" height="92">
<rect x="1" width="1439" height="92" fill="#1664FF"/>
</mask>
<g mask="url(#mask0_254_3350)">
<path d="M1022.13 37.1303L1022.48 37.4839L1022.84 37.1303L1022.48 36.7768L1022.13 37.1303ZM960.598 98.6629L960.244 98.3094L960.095 98.4584L960.098 98.6691L960.598 98.6629ZM960.598 -24.4022L960.951 -24.7558L960.105 -25.6021L960.098 -24.4052L960.598 -24.4022ZM960.598 -24.4016L960.951 -24.048L961.097 -24.1932L961.098 -24.3986L960.598 -24.4016ZM899.065 37.131L898.712 36.7774L898.358 37.131L898.712 37.4845L899.065 37.131ZM960.598 98.6635L960.244 99.0171L961.113 99.8858L961.098 98.6574L960.598 98.6635ZM1021.78 36.7768L960.244 98.3094L960.951 99.0165L1022.48 37.4839L1021.78 36.7768ZM960.244 -24.0487L1021.78 37.4839L1022.48 36.7768L960.951 -24.7558L960.244 -24.0487ZM961.098 -24.3986L961.098 -24.3992L960.098 -24.4052L960.098 -24.4046L961.098 -24.3986ZM899.419 37.4845L960.951 -24.048L960.244 -24.7551L898.712 36.7774L899.419 37.4845ZM960.951 98.31L899.419 36.7774L898.712 37.4845L960.244 99.0171L960.951 98.31ZM960.098 98.6691L960.098 98.6697L961.098 98.6574L961.098 98.6567L960.098 98.6691Z" fill="white" fill-opacity="0.23"/>
<path d="M975.98 83.2799L975.627 82.9263L975.273 83.2799L975.627 83.6334L975.98 83.2799ZM1037.51 21.7473L1038.01 21.7436L1038 20.5491L1037.16 21.3938L1037.51 21.7473ZM1037.51 144.812L1038.01 144.82L1038.02 144.608L1037.87 144.459L1037.51 144.812ZM1037.51 144.813L1037.01 144.806L1037 146.038L1037.87 145.167L1037.51 144.813ZM1099.05 83.2804L1099.4 83.6339L1099.75 83.2804L1099.4 82.9268L1099.05 83.2804ZM1037.51 21.7478L1037.01 21.7515L1037.01 21.9565L1037.16 22.1014L1037.51 21.7478ZM976.334 83.6334L1037.87 22.1009L1037.16 21.3938L975.627 82.9263L976.334 83.6334ZM1037.87 144.459L976.334 82.9263L975.627 83.6334L1037.16 145.166L1037.87 144.459ZM1038.01 144.82L1038.01 144.82L1037.01 144.805L1037.01 144.806L1038.01 144.82ZM1098.69 82.9268L1037.16 144.459L1037.87 145.167L1099.4 83.6339L1098.69 82.9268ZM1037.16 22.1014L1098.69 83.6339L1099.4 82.9268L1037.87 21.3943L1037.16 22.1014ZM1037.01 21.751L1037.01 21.7515L1038.01 21.7441L1038.01 21.7436L1037.01 21.751Z" fill="white" fill-opacity="0.23"/>
<path d="M1022.13 -85.9348L1022.48 -85.5812L1022.84 -85.9348L1022.48 -86.2883L1022.13 -85.9348ZM899.065 37.1304L898.711 37.4839L899.065 37.8375L899.418 37.4839L899.065 37.1304ZM899.065 -209L899.418 -209.353L899.065 -209.707L898.711 -209.353L899.065 -209ZM776 -85.9346L775.646 -86.2882L775.293 -85.9346L775.646 -85.5811L776 -85.9346ZM1021.78 -86.2883L898.711 36.7769L899.418 37.4839L1022.48 -85.5812L1021.78 -86.2883ZM898.711 -208.646L1021.78 -85.5812L1022.48 -86.2883L899.418 -209.353L898.711 -208.646ZM776.353 -85.5811L899.418 -208.646L898.711 -209.353L775.646 -86.2882L776.353 -85.5811ZM899.418 36.7769L776.353 -86.2882L775.646 -85.5811L898.711 37.4839L899.418 36.7769Z" fill="white" fill-opacity="0.23"/>
<path d="M899.065 98.6625L898.711 98.309L898.358 98.6625L898.711 99.0161L899.065 98.6625ZM929.831 67.8962L930.331 67.8951L930.328 66.6919L929.478 67.5427L929.831 67.8962ZM929.831 129.429L930.331 129.431L930.332 129.223L930.185 129.075L929.831 129.429ZM929.831 129.43L929.331 129.427L929.326 130.642L930.185 129.783L929.831 129.43ZM960.597 98.6634L960.951 99.0169L961.304 98.6634L960.951 98.3098L960.597 98.6634ZM929.831 67.8971L929.331 67.8982L929.332 68.1047L929.478 68.2506L929.831 67.8971ZM899.418 99.0161L930.185 68.2498L929.478 67.5427L898.711 98.309L899.418 99.0161ZM930.185 129.075L899.418 98.309L898.711 99.0161L929.478 129.782L930.185 129.075ZM930.331 129.432L930.331 129.431L929.331 129.427L929.331 129.427L930.331 129.432ZM960.244 98.3098L929.478 129.076L930.185 129.783L960.951 99.0169L960.244 98.3098ZM929.478 68.2506L960.244 99.0169L960.951 98.3098L930.185 67.5435L929.478 68.2506ZM929.331 67.8974L929.331 67.8982L930.331 67.8959L930.331 67.8951L929.331 67.8974Z" fill="white" fill-opacity="0.23"/>
<path d="M929.831 67.8957L930.185 68.2492L930.539 67.8957L930.185 67.5421L929.831 67.8957ZM899.065 98.662L898.712 98.3084L898.563 98.4574L898.565 98.6681L899.065 98.662ZM899.065 37.1294L899.419 36.7758L898.572 35.9293L898.565 37.1265L899.065 37.1294ZM899.065 37.1297L899.419 37.4833L899.564 37.338L899.565 37.1327L899.065 37.1297ZM868.299 67.896L867.945 67.5425L867.592 67.896L867.945 68.2496L868.299 67.896ZM899.065 98.6623L898.712 99.0158L899.58 99.8843L899.565 98.6562L899.065 98.6623ZM929.478 67.5421L898.712 98.3084L899.419 99.0155L930.185 68.2492L929.478 67.5421ZM898.712 37.4829L929.478 68.2492L930.185 67.5421L899.419 36.7758L898.712 37.4829ZM899.565 37.1327L899.565 37.1323L898.565 37.1265L898.565 37.1268L899.565 37.1327ZM868.652 68.2496L899.419 37.4833L898.712 36.7762L867.945 67.5425L868.652 68.2496ZM899.419 98.3087L868.652 67.5425L867.945 68.2496L898.712 99.0158L899.419 98.3087ZM898.565 98.6681L898.565 98.6684L899.565 98.6562L899.565 98.6559L898.565 98.6681Z" fill="white" fill-opacity="0.23"/>
<path d="M1037.51 21.747L1037.87 22.1006L1038.22 21.747L1037.87 21.3935L1037.51 21.747ZM1022.13 37.1302L1021.78 36.7766L1021.63 36.9256L1021.63 37.1363L1022.13 37.1302ZM1022.13 6.36389L1022.48 6.01034L1021.64 5.16392L1021.63 6.36092L1022.13 6.36389ZM1022.13 6.36405L1022.48 6.71761L1022.63 6.57239L1022.63 6.36703L1022.13 6.36405ZM1006.75 21.7472L1006.39 21.3936L1006.04 21.7472L1006.39 22.1007L1006.75 21.7472ZM1022.13 37.1303L1021.78 37.4839L1022.64 38.3524L1022.63 37.1242L1022.13 37.1303ZM1037.16 21.3935L1021.78 36.7766L1022.48 37.4837L1037.87 22.1006L1037.16 21.3935ZM1021.78 6.71745L1037.16 22.1006L1037.87 21.3935L1022.48 6.01034L1021.78 6.71745ZM1022.63 6.36703L1022.63 6.36687L1021.63 6.36092L1021.63 6.36108L1022.63 6.36703ZM1007.1 22.1007L1022.48 6.71761L1021.78 6.0105L1006.39 21.3936L1007.1 22.1007ZM1022.48 36.7768L1007.1 21.3936L1006.39 22.1007L1021.78 37.4839L1022.48 36.7768ZM1021.63 37.1363L1021.63 37.1364L1022.63 37.1242L1022.63 37.1241L1021.63 37.1363Z" fill="white" fill-opacity="0.23"/>
<path d="M1136.8 -50.9729L1136.45 -51.3265L1136.1 -50.9729L1136.45 -50.6194L1136.8 -50.9729ZM1198.34 -112.505H1198.84V-113.713L1197.98 -112.859L1198.34 -112.505ZM1198.34 10.5596L1198.84 10.5671L1198.84 10.3556L1198.69 10.2061L1198.34 10.5596ZM1198.34 10.5602L1197.84 10.5527L1197.82 11.7856L1198.69 10.9137L1198.34 10.5602ZM1259.87 -50.9724L1260.22 -50.6189L1260.58 -50.9724L1260.22 -51.326L1259.87 -50.9724ZM1198.34 -112.505H1197.84V-112.298L1197.98 -112.151L1198.34 -112.505ZM1137.16 -50.6194L1198.69 -112.152L1197.98 -112.859L1136.45 -51.3265L1137.16 -50.6194ZM1198.69 10.2061L1137.16 -51.3265L1136.45 -50.6194L1197.98 10.9132L1198.69 10.2061ZM1198.84 10.5676L1198.84 10.5671L1197.84 10.5522L1197.84 10.5527L1198.84 10.5676ZM1259.52 -51.326L1197.98 10.2066L1198.69 10.9137L1260.22 -50.6189L1259.52 -51.326ZM1197.98 -112.151L1259.52 -50.6189L1260.22 -51.326L1198.69 -112.858L1197.98 -112.151ZM1197.84 -112.505V-112.505H1198.84V-112.505H1197.84Z" fill="white" fill-opacity="0.24"/>
<path d="M1382.93 -50.9736L1383.29 -50.6201L1383.64 -50.9736L1383.29 -51.3272L1382.93 -50.9736ZM1321.4 10.559L1320.9 10.5553L1320.89 11.775L1321.76 10.9125L1321.4 10.559ZM1321.4 -112.506L1320.9 -112.52L1320.9 -112.305L1321.05 -112.153L1321.4 -112.506ZM1321.4 -112.507L1321.9 -112.493L1321.94 -113.749L1321.05 -112.86L1321.4 -112.507ZM1259.87 -50.9741L1259.52 -51.3277L1259.16 -50.9741L1259.52 -50.6206L1259.87 -50.9741ZM1321.4 10.5584L1321.9 10.5621L1321.9 10.3529L1321.76 10.2049L1321.4 10.5584ZM1382.58 -51.3272L1321.05 10.2054L1321.76 10.9125L1383.29 -50.6201L1382.58 -51.3272ZM1321.05 -112.153L1382.58 -50.6201L1383.29 -51.3272L1321.76 -112.86L1321.05 -112.153ZM1320.9 -112.521L1320.9 -112.52L1321.9 -112.492L1321.9 -112.493L1320.9 -112.521ZM1260.22 -50.6206L1321.76 -112.153L1321.05 -112.86L1259.52 -51.3277L1260.22 -50.6206ZM1321.76 10.2049L1260.22 -51.3277L1259.52 -50.6206L1321.05 10.912L1321.76 10.2049ZM1321.9 10.5626L1321.9 10.5621L1320.9 10.5548L1320.9 10.5553L1321.9 10.5626Z" fill="white" fill-opacity="0.24"/>
<path d="M1259.87 72.0925L1259.52 71.7389L1259.16 72.0925L1259.52 72.446L1259.87 72.0925ZM1382.93 -50.9727L1383.29 -51.3262L1382.93 -51.6798L1382.58 -51.3262L1382.93 -50.9727ZM1382.93 195.157L1382.58 195.511L1382.93 195.865L1383.29 195.511L1382.93 195.157ZM1506 72.0923L1506.35 72.4459L1506.71 72.0923L1506.35 71.7388L1506 72.0923ZM1260.22 72.446L1383.29 -50.6191L1382.58 -51.3262L1259.52 71.7389L1260.22 72.446ZM1383.29 194.804L1260.22 71.7389L1259.52 72.446L1382.58 195.511L1383.29 194.804ZM1505.65 71.7388L1382.58 194.804L1383.29 195.511L1506.35 72.4459L1505.65 71.7388ZM1382.58 -50.6191L1505.65 72.4459L1506.35 71.7388L1383.29 -51.3262L1382.58 -50.6191Z" fill="white" fill-opacity="0.24"/>
<path d="M1229.1 102.858L1228.75 102.504L1228.4 102.858L1228.75 103.212L1229.1 102.858ZM1259.87 72.0917L1260.22 72.4453L1260.38 72.2925L1260.37 72.0765L1259.87 72.0917ZM1259.87 133.624L1259.52 133.978L1260.38 134.846L1260.37 133.618L1259.87 133.624ZM1259.87 133.624L1259.52 133.27L1259.37 133.419L1259.37 133.63L1259.87 133.624ZM1290.64 102.858L1290.99 103.211L1291.34 102.858L1290.99 102.504L1290.64 102.858ZM1259.87 72.0914L1260.22 71.7378L1259.33 70.8461L1259.37 72.1066L1259.87 72.0914ZM1229.46 103.212L1260.22 72.4453L1259.52 71.7381L1228.75 102.504L1229.46 103.212ZM1260.22 133.271L1229.46 102.504L1228.75 103.212L1259.52 133.978L1260.22 133.271ZM1259.37 133.63L1259.37 133.63L1260.37 133.618L1260.37 133.618L1259.37 133.63ZM1290.28 102.504L1259.52 133.27L1260.22 133.977L1290.99 103.211L1290.28 102.504ZM1259.52 72.4449L1290.28 103.211L1290.99 102.504L1260.22 71.7378L1259.52 72.4449ZM1260.37 72.0765L1260.37 72.0762L1259.37 72.1066L1259.37 72.1069L1260.37 72.0765Z" fill="white" fill-opacity="0.24"/>
<path d="M1244.49 56.7096L1244.13 56.3561L1243.78 56.7096L1244.13 57.0632L1244.49 56.7096ZM1259.87 41.3265L1260.22 41.68L1260.38 41.527L1260.37 41.3107L1259.87 41.3265ZM1259.87 72.0928L1259.52 72.4463L1260.38 73.3148L1260.37 72.0867L1259.87 72.0928ZM1259.87 72.0926L1259.52 71.7391L1259.37 71.888L1259.37 72.0987L1259.87 72.0926ZM1275.25 56.7095L1275.61 57.063L1275.96 56.7095L1275.61 56.3559L1275.25 56.7095ZM1259.87 41.3263L1260.22 40.9728L1259.33 40.0795L1259.37 41.3422L1259.87 41.3263ZM1244.84 57.0632L1260.22 41.68L1259.52 40.9729L1244.13 56.3561L1244.84 57.0632ZM1260.22 71.7392L1244.84 56.3561L1244.13 57.0632L1259.52 72.4463L1260.22 71.7392ZM1259.37 72.0987L1259.37 72.0989L1260.37 72.0867L1260.37 72.0865L1259.37 72.0987ZM1274.9 56.3559L1259.52 71.7391L1260.22 72.4462L1275.61 57.063L1274.9 56.3559ZM1259.52 41.6799L1274.9 57.063L1275.61 56.3559L1260.22 40.9728L1259.52 41.6799ZM1260.37 41.3107L1260.37 41.3105L1259.37 41.3422L1259.37 41.3423L1260.37 41.3107Z" fill="white" fill-opacity="0.24"/>
<path d="M1244.49 25.943L1244.13 25.5895L1243.78 25.943L1244.13 26.2966L1244.49 25.943ZM1259.87 10.5599L1260.22 10.9134L1260.38 10.7606L1260.37 10.5445L1259.87 10.5599ZM1259.87 41.3262L1259.52 41.6797L1260.38 42.5479L1260.37 41.3202L1259.87 41.3262ZM1259.87 41.326L1259.52 40.9725L1259.37 41.1214L1259.37 41.332L1259.87 41.326ZM1275.25 25.9429L1275.61 26.2964L1275.96 25.9429L1275.61 25.5893L1275.25 25.9429ZM1259.87 10.5597L1260.22 10.2062L1259.33 9.31394L1259.37 10.5752L1259.87 10.5597ZM1244.84 26.2966L1260.22 10.9134L1259.52 10.2063L1244.13 25.5895L1244.84 26.2966ZM1260.22 40.9726L1244.84 25.5895L1244.13 26.2966L1259.52 41.6797L1260.22 40.9726ZM1259.37 41.332L1259.37 41.3321L1260.37 41.3202L1260.37 41.3201L1259.37 41.332ZM1274.9 25.5893L1259.52 40.9725L1260.22 41.6796L1275.61 26.2964L1274.9 25.5893ZM1259.52 10.9133L1274.9 26.2964L1275.61 25.5893L1260.22 10.2062L1259.52 10.9133ZM1260.37 10.5445L1260.37 10.5443L1259.37 10.5752L1259.37 10.5753L1260.37 10.5445Z" fill="white" fill-opacity="0.24"/>
</g>
<path d="M1 0H691L583.817 92H1V0Z" fill="#1E232C"/>
<path d="M147.353 33.58H150.593V55H147.353V33.58ZM154.852 33.58H162.652C166.102 33.58 168.712 34.54 170.512 36.49C172.192 38.29 173.032 40.9 173.032 44.29C173.032 47.65 172.162 50.26 170.452 52.12C168.652 54.04 166.042 55 162.592 55H154.852V33.58ZM158.122 36.37V52.21H161.992C164.692 52.21 166.702 51.55 167.962 50.26C169.192 48.97 169.822 46.99 169.822 44.29C169.822 41.53 169.192 39.55 167.992 38.29C166.732 37 164.752 36.37 162.052 36.37H158.122ZM183.856 33.16C186.346 33.16 188.296 33.67 189.706 34.75C191.206 35.86 192.046 37.57 192.256 39.91H189.016C188.716 38.53 188.176 37.51 187.336 36.91C186.496 36.28 185.296 35.98 183.676 35.98C182.266 35.98 181.186 36.19 180.436 36.61C179.506 37.09 179.056 37.87 179.056 38.95C179.056 39.91 179.566 40.66 180.646 41.23C181.126 41.5 182.356 41.95 184.366 42.55C187.246 43.45 189.136 44.14 189.976 44.65C191.806 45.76 192.736 47.29 192.736 49.27C192.736 51.19 191.986 52.69 190.486 53.8C188.986 54.88 186.886 55.42 184.186 55.42C181.576 55.42 179.536 54.88 178.066 53.86C176.296 52.6 175.336 50.62 175.156 47.92H178.396C178.636 49.6 179.236 50.83 180.196 51.55C181.066 52.21 182.386 52.54 184.186 52.54C185.806 52.54 187.096 52.24 188.056 51.7C189.016 51.16 189.496 50.41 189.496 49.45C189.496 48.25 188.806 47.32 187.456 46.63C186.976 46.39 185.566 45.91 183.196 45.19C180.556 44.35 178.936 43.78 178.276 43.42C176.626 42.43 175.816 40.99 175.816 39.13C175.816 37.24 176.596 35.77 178.186 34.69C179.686 33.67 181.576 33.16 183.856 33.16ZM203.25 39.07C205.53 39.07 207.3 39.88 208.62 41.5C209.82 43 210.42 44.92 210.42 47.32C210.42 49.6 209.82 51.49 208.65 52.99C207.39 54.61 205.62 55.42 203.4 55.42C201.48 55.42 199.92 54.52 198.66 52.72V60.94H195.48V39.49H198.45V41.35C199.53 39.82 201.15 39.07 203.25 39.07ZM202.77 41.65C201.39 41.65 200.31 42.19 199.56 43.3C198.9 44.26 198.57 45.55 198.57 47.14V47.41C198.57 49.06 198.96 50.41 199.8 51.43C200.52 52.36 201.48 52.84 202.68 52.84C204.24 52.84 205.38 52.33 206.13 51.31C206.79 50.35 207.15 49.03 207.15 47.32C207.15 45.61 206.82 44.29 206.22 43.33C205.47 42.19 204.33 41.65 202.77 41.65ZM213.409 33.16H216.589V41.68C217.159 40.78 217.879 40.09 218.749 39.67C219.529 39.25 220.399 39.07 221.389 39.07C223.249 39.07 224.659 39.61 225.619 40.72C226.519 41.77 226.969 43.33 226.969 45.37V55H223.789V45.91C223.789 44.53 223.489 43.51 222.949 42.79C222.349 42.04 221.419 41.68 220.219 41.68C219.139 41.68 218.269 42.1 217.609 42.97C216.919 43.84 216.589 44.95 216.589 46.3V55H213.409V33.16ZM237.147 39.07C239.667 39.07 241.617 39.91 242.937 41.65C244.137 43.21 244.767 45.37 244.797 48.13H233.037C233.157 49.63 233.547 50.8 234.267 51.61C234.987 52.39 235.977 52.81 237.237 52.81C238.347 52.81 239.247 52.54 239.937 52.03C240.477 51.61 240.927 50.92 241.347 50.02H244.527C244.167 51.46 243.477 52.69 242.397 53.65C241.047 54.82 239.337 55.42 237.267 55.42C234.987 55.42 233.157 54.7 231.837 53.29C230.397 51.79 229.677 49.78 229.677 47.23C229.677 44.92 230.337 43 231.717 41.44C233.037 39.85 234.867 39.07 237.147 39.07ZM237.237 41.68C236.037 41.68 235.107 42.01 234.387 42.73C233.727 43.42 233.277 44.41 233.097 45.73H241.467C241.167 43.03 239.757 41.68 237.237 41.68ZM254.711 39.07C255.491 39.07 256.181 39.19 256.721 39.46V42.64C255.941 42.4 255.191 42.31 254.471 42.31C253.511 42.31 252.641 42.7 251.891 43.48C251.081 44.32 250.691 45.43 250.691 46.78V55H247.511V39.49H250.691V41.83C251.081 40.99 251.591 40.36 252.191 39.94C252.911 39.34 253.751 39.07 254.711 39.07ZM265.243 39.07C267.763 39.07 269.713 39.91 271.033 41.65C272.233 43.21 272.863 45.37 272.893 48.13H261.133C261.253 49.63 261.643 50.8 262.363 51.61C263.083 52.39 264.073 52.81 265.333 52.81C266.443 52.81 267.343 52.54 268.033 52.03C268.573 51.61 269.023 50.92 269.443 50.02H272.623C272.263 51.46 271.573 52.69 270.493 53.65C269.143 54.82 267.433 55.42 265.363 55.42C263.083 55.42 261.253 54.7 259.933 53.29C258.493 51.79 257.773 49.78 257.773 47.23C257.773 44.92 258.433 43 259.813 41.44C261.133 39.85 262.963 39.07 265.243 39.07ZM265.333 41.68C264.133 41.68 263.203 42.01 262.483 42.73C261.823 43.42 261.373 44.41 261.193 45.73H269.563C269.263 43.03 267.853 41.68 265.333 41.68Z" fill="white"/>
<path d="M334.6 57.16H346.99C348.76 52.96 350.29 47.83 351.61 41.77L354.43 42.52C353.23 47.98 351.79 52.87 350.05 57.16H355.96V59.92H334.6V57.16ZM338.32 43.24C339.52 46.42 340.57 50.05 341.53 54.19L338.83 54.88C338.05 51.1 337.06 47.5 335.86 44.02L338.32 43.24ZM344.08 41.05C345.1 44.35 346.03 48.13 346.84 52.36L344.14 53.02C343.48 49.18 342.61 45.46 341.59 41.86L344.08 41.05ZM344.23 33.19C344.71 34.06 345.19 35.02 345.64 36.1H356.44V38.86H334.45V45.16C334.36 51.82 333.4 57.13 331.54 61.12L329.14 58.99C330.7 55.69 331.51 51.07 331.57 45.16V36.1H342.46C342.04 35.26 341.56 34.45 341.05 33.73L344.23 33.19ZM364.78 44.29V48.88H371.68V44.29H364.78ZM364.63 51.52C364.27 55.3 363.16 58.42 361.3 60.88L359.11 58.93C360.91 56.35 361.84 53.08 361.9 49.12V34.42H384.91V57.01C384.91 59.26 383.74 60.4 381.46 60.4H378.01L377.26 57.61C378.43 57.7 379.51 57.76 380.53 57.76C381.49 57.76 382 57.16 382 55.99V51.52H374.56V60.07H371.68V51.52H364.63ZM382 48.88V44.29H374.56V48.88H382ZM382 41.68V37.18H374.56V41.68H382ZM371.68 37.18H364.78V41.68H371.68V37.18ZM392.05 33.64C394.03 35.23 395.74 36.79 397.15 38.35L395.08 40.36C393.91 38.86 392.23 37.27 390.07 35.53L392.05 33.64ZM409.24 60.58C407.62 60.58 405.88 60.55 403.99 60.52C402.07 60.49 400.51 60.31 399.28 60.01C398.08 59.65 397.06 58.93 396.16 57.91C395.77 57.4 395.41 57.16 395.05 57.16C394.42 57.16 393.34 58.51 391.81 61.21L389.71 59.26C391.21 56.83 392.59 55.3 393.79 54.7V46.21H389.74V43.57H396.46V54.94C396.58 55.06 396.7 55.18 396.85 55.36C397.54 56.17 398.26 56.77 398.98 57.16C399.85 57.58 401.17 57.85 402.91 57.91C404.59 57.94 406.57 57.97 408.85 57.97C410.32 57.97 411.82 57.94 413.35 57.91C414.85 57.88 416.02 57.82 416.86 57.76L416.14 60.58H409.24ZM400.21 34.87H414.25V37.51H400.21V34.87ZM398.32 41.65H416.44V44.35H407.2C405.76 47.92 404.41 50.65 403.12 52.54C406.48 52.12 409.3 51.64 411.61 51.04C410.95 49.54 410.26 48.13 409.54 46.78L411.85 46.03C413.41 48.76 414.82 51.88 416.05 55.42L413.5 56.08C413.2 55.18 412.9 54.34 412.6 53.5C409.36 54.31 405.1 54.97 399.88 55.51L399.16 53.05C400.36 52.69 402.1 49.78 404.35 44.35H398.32V41.65ZM425.29 44.26H440.86V50.68H425.29V44.26ZM438.25 48.58V46.42H427.93V48.58H438.25ZM443.68 52.3V61.12H440.92V59.95H425.38V61.12H422.59V52.3H443.68ZM425.38 57.58H440.92V54.64H425.38V57.58ZM420.01 35.26H426.52V33.46H429.34V35.26H436.66V33.46H439.48V35.26H445.99V37.75H439.48V39.28H436.66V37.75H429.34V39.28H426.52V37.75H420.01V35.26ZM445.39 40.21V46.18H442.66V42.61H423.34V46.33H420.61V40.21H445.39ZM450.82 34.54H475.24V37.33H464.32V47.95H476.38V50.68H464.32V61.06H461.44V50.68H449.62V47.95H461.44V37.33H450.82V34.54ZM455.02 38.74C456.1 40.78 457.15 43 458.17 45.46L455.5 46.78C454.51 44.26 453.46 42.01 452.35 40.03L455.02 38.74ZM471.22 38.62L473.83 39.85C472.96 42.16 471.82 44.41 470.44 46.63L467.86 45.31C469.27 43.03 470.38 40.81 471.22 38.62ZM503.26 48.37V61.12H500.38V59.89H485.62V61.12H482.74V48.37H503.26ZM485.62 57.16H500.38V51.1H485.62V57.16ZM480.79 45.58L480.25 42.88C482.53 42.37 485.68 39.16 489.7 33.28L492.67 34.3C490.24 37.66 487.78 40.48 485.26 42.76C490.36 42.58 495.28 42.25 500.05 41.8C499.09 40.36 498.1 39.04 497.11 37.78L499.69 36.55C502.12 39.55 504.43 42.85 506.62 46.48L503.83 47.86C503.11 46.6 502.42 45.43 501.73 44.32C495.46 44.86 488.47 45.28 480.79 45.58Z" fill="white"/>
<rect x="302" y="35" width="1" height="23" fill="white"/>
</svg>
