<svg width="1440" height="413" viewBox="0 0 1440 413" fill="none" xmlns="http://www.w3.org/2000/svg">
<rect width="1440" height="413" fill="white"/>
<mask id="mask0_254_3250" style="mask-type:alpha" maskUnits="userSpaceOnUse" x="0" y="0" width="1440" height="413">
<rect width="1440" height="413" fill="white"/>
</mask>
<g mask="url(#mask0_254_3250)">
<g opacity="0.5">
<path opacity="0.3" d="M279.805 281.378L103.289 457.894L103.289 104.862L279.805 281.378Z" fill="#94C2FF"/>
<path opacity="0.13" d="M412.191 148.991L323.934 237.249L323.934 60.7334L412.191 148.991Z" fill="#94C2FF"/>
<path opacity="0.05" d="M456.32 281.378L368.063 369.636L368.062 193.12L456.32 281.378Z" fill="#94C2FF"/>
<path opacity="0.06" d="M632.836 193.12L544.578 281.378L544.578 104.862L632.836 193.12Z" fill="#94C2FF"/>
<path opacity="0.3" d="M368.062 -159.911L191.547 16.6045L191.547 -336.427L368.062 -159.911Z" fill="#94C2FF"/>
<path opacity="0.05" d="M588.707 -27.5244L412.191 148.991L412.191 -204.04L588.707 -27.5244Z" fill="#94C2FF"/>
<path opacity="0.3" d="M-73.2266 281.378L103.289 104.862L103.289 457.893L-73.2266 281.378Z" fill="#94C2FF"/>
<path opacity="0.3" d="M15.0313 -159.911L191.547 -336.427L191.547 16.6044L15.0313 -159.911Z" fill="#94C2FF"/>
<path opacity="0.05" d="M279.805 281.378L368.062 193.12L368.063 369.636L279.805 281.378Z" fill="#94C2FF"/>
<path opacity="0.13" d="M235.676 148.991L323.934 60.7334L323.934 237.249L235.676 148.991Z" fill="#94C2FF"/>
<path opacity="0.06" d="M456.32 193.12L544.578 104.862L544.578 281.378L456.32 193.12Z" fill="#94C2FF"/>
<path opacity="0.05" d="M235.676 -27.5244L412.191 -204.04L412.191 148.991L235.676 -27.5244Z" fill="#94C2FF"/>
<path opacity="0.2" d="M279.805 104.862L191.547 193.12L191.547 16.6045L279.805 104.862Z" fill="#94C2FF"/>
<path opacity="0.26" d="M191.547 16.6045L103.289 104.862L103.289 -71.6533L191.547 16.6045Z" fill="#94C2FF"/>
<path opacity="0.17" d="M15.0312 193.12L-73.2266 281.378L-73.2266 104.862L15.0312 193.12Z" fill="#94C2FF"/>
<path opacity="0.12" d="M103.289 -71.6533L15.0313 16.6045L15.0312 -159.911L103.289 -71.6533Z" fill="#94C2FF"/>
<path opacity="0.09" d="M279.805 193.12L235.676 237.249L235.676 148.991L279.805 193.12Z" fill="#94C2FF"/>
<path opacity="0.09" d="M500.449 237.249L456.32 281.378L456.32 193.12L500.449 237.249Z" fill="#94C2FF"/>
<path opacity="0.02" d="M544.578 104.862L500.449 148.991L500.449 60.7334L544.578 104.862Z" fill="#94C2FF"/>
<path opacity="0.04" d="M59.1602 60.7334L15.0313 104.862L15.0312 16.6045L59.1602 60.7334Z" fill="#94C2FF"/>
<path opacity="0.11" d="M59.1602 148.991L15.0313 193.12L15.0312 104.862L59.1602 148.991Z" fill="#94C2FF"/>
<path opacity="0.2" d="M103.289 104.862L191.547 16.6045L191.547 193.12L103.289 104.862Z" fill="#94C2FF"/>
<path opacity="0.26" d="M15.0313 16.6045L103.289 -71.6533L103.289 104.862L15.0313 16.6045Z" fill="#94C2FF"/>
<path opacity="0.12" d="M-73.2266 -71.6533L15.0312 -159.911L15.0313 16.6045L-73.2266 -71.6533Z" fill="#94C2FF"/>
<path opacity="0.04" d="M-29.0977 60.7334L15.0312 16.6045L15.0313 104.862L-29.0977 60.7334Z" fill="#94C2FF"/>
<path opacity="0.09" d="M191.547 193.12L235.676 148.991L235.676 237.249L191.547 193.12Z" fill="#94C2FF"/>
<path opacity="0.09" d="M412.191 237.249L456.32 193.12L456.32 281.378L412.191 237.249Z" fill="#94C2FF"/>
<path opacity="0.02" d="M456.32 104.862L500.449 60.7334L500.449 148.991L456.32 104.862Z" fill="#94C2FF"/>
<path opacity="0.11" d="M-29.0977 148.991L15.0312 104.862L15.0313 193.12L-29.0977 148.991Z" fill="#94C2FF"/>
<path opacity="0.3" d="M1274.71 425.8L1451.23 249.284L1451.23 602.315L1274.71 425.8Z" fill="#94C2FF"/>
<path opacity="0.05" d="M1098.2 425.8L1186.45 337.542L1186.45 514.058L1098.2 425.8Z" fill="#94C2FF"/>
<path opacity="0.05" d="M1274.71 425.8L1186.45 514.058L1186.45 337.542L1274.71 425.8Z" fill="#94C2FF"/>
<path opacity="0.09" d="M921.68 249.284L1098.2 72.7686L1098.2 425.8L921.68 249.284Z" fill="#94C2FF"/>
<path opacity="0.09" d="M1274.71 249.284L1098.2 425.8L1098.2 72.7686L1274.71 249.284Z" fill="#94C2FF"/>
<path opacity="0.21" d="M1009.94 -15.4892L1362.97 -368.521L1362.97 337.542L1009.94 -15.4892Z" fill="#94C2FF"/>
<path opacity="0.21" d="M1716 -15.4893L1362.97 337.542L1362.97 -368.52L1716 -15.4893Z" fill="#94C2FF"/>
<path opacity="0.09" d="M632.836 457.894L456.32 634.409L456.32 281.378L632.836 457.894Z" fill="#94C2FF"/>
<path opacity="0.09" d="M279.805 457.894L456.32 281.378L456.32 634.409L279.805 457.894Z" fill="#94C2FF"/>
</g>
</g>
</svg>
