<svg width="530" height="164" viewBox="0 0 530 164" fill="none" xmlns="http://www.w3.org/2000/svg">
<g opacity="0.8">
<path opacity="0.3" d="M448.483 76.3792L491.074 33.7882L491.074 118.97L448.483 76.3792Z" fill="#94C2FF"/>
<path opacity="0.13" d="M416.542 108.322L437.838 87.0261L437.838 129.617L416.542 108.322Z" fill="#94C2FF"/>
<path opacity="0.05" d="M405.893 76.3797L427.189 55.0842L427.189 97.6752L405.893 76.3797Z" fill="#94C2FF"/>
<path opacity="0.06" d="M363.302 97.676L384.598 76.3805L384.598 118.972L363.302 97.676Z" fill="#94C2FF"/>
<path opacity="0.05" d="M373.95 150.914L416.541 108.323L416.541 193.505L373.95 150.914Z" fill="#94C2FF"/>
<path opacity="0.3" d="M533.665 76.3797L491.074 118.971L491.074 33.7887L533.665 76.3797Z" fill="#94C2FF"/>
<path opacity="0.05" d="M448.484 76.3789L427.189 97.6744L427.189 55.0834L448.484 76.3789Z" fill="#94C2FF"/>
<path opacity="0.13" d="M459.133 108.323L437.838 129.619L437.838 87.0277L459.133 108.323Z" fill="#94C2FF"/>
<path opacity="0.06" d="M405.893 97.6752L384.598 118.971L384.598 76.3797L405.893 97.6752Z" fill="#94C2FF"/>
<path opacity="0.05" d="M459.132 150.914L416.541 193.505L416.541 108.323L459.132 150.914Z" fill="#94C2FF"/>
<path opacity="0.2" d="M448.484 118.97L469.779 97.6744L469.779 140.265L448.484 118.97Z" fill="#94C2FF"/>
<path opacity="0.17" d="M512.371 97.676L533.667 76.3805L533.667 118.972L512.371 97.676Z" fill="#94C2FF"/>
<path opacity="0.09" d="M448.483 97.6739L459.131 87.0261L459.131 108.322L448.483 97.6739Z" fill="#94C2FF"/>
<path opacity="0.09" d="M395.246 87.0282L405.894 76.3805L405.894 97.676L395.246 87.0282Z" fill="#94C2FF"/>
<path opacity="0.02" d="M384.596 118.97L395.244 108.323L395.244 129.618L384.596 118.97Z" fill="#94C2FF"/>
<path opacity="0.11" d="M501.722 108.322L512.37 97.6744L512.37 118.97L501.722 108.322Z" fill="#94C2FF"/>
<path opacity="0.2" d="M491.075 118.971L469.779 140.266L469.779 97.6755L491.075 118.971Z" fill="#94C2FF"/>
<path opacity="0.09" d="M469.779 97.6748L459.131 108.323L459.131 87.027L469.779 97.6748Z" fill="#94C2FF"/>
<path opacity="0.09" d="M416.541 87.0267L405.894 97.6744L405.894 76.3789L416.541 87.0267Z" fill="#94C2FF"/>
<path opacity="0.02" d="M405.892 118.971L395.244 129.619L395.244 108.323L405.892 118.971Z" fill="#94C2FF"/>
<path opacity="0.11" d="M523.018 108.323L512.37 118.971L512.37 97.6752L523.018 108.323Z" fill="#94C2FF"/>
<path opacity="0.09" d="M363.303 33.789L405.894 -8.802L405.894 76.38L363.303 33.789Z" fill="#94C2FF"/>
<path opacity="0.09" d="M448.485 33.7895L405.894 76.3805L405.894 -8.80151L448.485 33.7895Z" fill="#94C2FF"/>
<path opacity="0.21" d="M384.597 -30.0985L469.779 -115.281L469.779 55.0835L384.597 -30.0985Z" fill="#94C2FF"/>
<path opacity="0.21" d="M554.961 -30.0978L469.779 55.0842L469.779 -115.28L554.961 -30.0978Z" fill="#94C2FF"/>
<path opacity="0.06" d="M196 -15.3938L213.777 -33.1708L213.777 2.38326L196 -15.3938Z" fill="#94C2FF"/>
</g>
<g opacity="0.55">
<path opacity="0.3" d="M80.6372 114.953L138.455 57.1346L138.455 172.77L80.6372 114.953Z" fill="#94C2FF"/>
<path opacity="0.13" d="M37.2722 158.318L66.1811 129.409L66.1812 187.227L37.2722 158.318Z" fill="#94C2FF"/>
<path opacity="0.05" d="M22.8201 114.953L51.729 86.0443L51.729 143.862L22.8201 114.953Z" fill="#94C2FF"/>
<path opacity="0.05" d="M-20.5442 216.134L37.2737 158.316L37.2737 273.952L-20.5442 216.134Z" fill="#94C2FF"/>
<path opacity="0.3" d="M196.273 114.953L138.455 172.771L138.455 57.1352L196.273 114.953Z" fill="#94C2FF"/>
<path opacity="0.05" d="M80.6379 114.955L51.729 143.864L51.729 86.0458L80.6379 114.955Z" fill="#94C2FF"/>
<path opacity="0.13" d="M95.0901 158.317L66.1812 187.226L66.1811 129.408L95.0901 158.317Z" fill="#94C2FF"/>
<path opacity="0.06" d="M22.8196 143.862L-6.08935 172.771L-6.08937 114.953L22.8196 143.862Z" fill="#94C2FF"/>
<path opacity="0.05" d="M95.0915 216.135L37.2737 273.952L37.2737 158.317L95.0915 216.135Z" fill="#94C2FF"/>
<path opacity="0.2" d="M80.6353 172.773L109.544 143.864L109.544 201.682L80.6353 172.773Z" fill="#94C2FF"/>
<path opacity="0.17" d="M167.363 143.863L196.271 114.954L196.271 172.772L167.363 143.863Z" fill="#94C2FF"/>
<path opacity="0.09" d="M80.6361 143.863L95.0906 129.409L95.0906 158.318L80.6361 143.863Z" fill="#94C2FF"/>
<path opacity="0.09" d="M8.3639 129.408L22.8184 114.954L22.8184 143.863L8.3639 129.408Z" fill="#94C2FF"/>
<path opacity="0.02" d="M-6.09021 172.77L8.36426 158.316L8.36426 187.225L-6.09021 172.77Z" fill="#94C2FF"/>
<path opacity="0.11" d="M152.91 158.318L167.364 143.864L167.364 172.773L152.91 158.318Z" fill="#94C2FF"/>
<path opacity="0.2" d="M138.453 172.772L109.544 201.681L109.544 143.863L138.453 172.772Z" fill="#94C2FF"/>
<path opacity="0.17" d="M225.18 143.862L196.271 172.771L196.271 114.953L225.18 143.862Z" fill="#94C2FF"/>
<path opacity="0.09" d="M109.545 143.861L95.0906 158.316L95.0906 129.407L109.545 143.861Z" fill="#94C2FF"/>
<path opacity="0.09" d="M37.2728 129.409L22.8184 143.864L22.8184 114.955L37.2728 129.409Z" fill="#94C2FF"/>
<path opacity="0.02" d="M22.8187 172.771L8.36426 187.226L8.36425 158.317L22.8187 172.771Z" fill="#94C2FF"/>
<path opacity="0.11" d="M181.819 158.316L167.364 172.771L167.364 143.862L181.819 158.316Z" fill="#94C2FF"/>
<path opacity="0.09" d="M-34.9995 57.1356L22.8184 -0.682251L22.8184 114.953L-34.9995 57.1356Z" fill="#94C2FF"/>
<path opacity="0.09" d="M80.6362 57.1361L22.8184 114.954L22.8183 -0.68174L80.6362 57.1361Z" fill="#94C2FF"/>
</g>
</svg>
